inDegrees=no
num_controls=7
num_derivatives=13
num_iterations=148
num_multipliers=7
num_parameters=0
num_slacks=7
num_states=26
objective=0.546482
objective_accelerations=0.040943
objective_balance=0.003632
objective_effort=0.039431
objective_height=0.453074
objective_ligament=0.009401
solver_duration=1730.001908
status=Solve_Succeeded
success=true
DataType=double
version=3
OpenSimVersion=4.5
endheader
time	/jointset/ground_pelvis/pelvis_tilt/value	/jointset/ground_pelvis/pelvis_tx/value	/jointset/ground_pelvis/pelvis_ty/value	/jointset/hip_r/hip_flexion_r/value	/jointset/hip_r/hip_adduction_r/value	/jointset/hip_r/hip_rotation_r/value	/jointset/back/lumbar_extension/value	/jointset/patellofemoral_r/patellar_flexion_r/value	/jointset/knee_r/knee_flexion_r/value	/jointset/knee_r/knee_adduction_r/value	/jointset/knee_r/knee_rotation_r/value	/jointset/ankle_r/ankle_angle_r/value	/jointset/subtalar_r/subtalar_angle_r/value	/jointset/ground_pelvis/pelvis_tilt/speed	/jointset/ground_pelvis/pelvis_tx/speed	/jointset/ground_pelvis/pelvis_ty/speed	/jointset/hip_r/hip_flexion_r/speed	/jointset/hip_r/hip_adduction_r/speed	/jointset/hip_r/hip_rotation_r/speed	/jointset/back/lumbar_extension/speed	/jointset/patellofemoral_r/patellar_flexion_r/speed	/jointset/knee_r/knee_flexion_r/speed	/jointset/knee_r/knee_adduction_r/speed	/jointset/knee_r/knee_rotation_r/speed	/jointset/ankle_r/ankle_angle_r/speed	/jointset/subtalar_r/subtalar_angle_r/speed	/forceset/tau_hip_flexion_r	/forceset/tau_hip_adduction_r	/forceset/tau_hip_rotation_r	/forceset/tau_knee_flexion_r	/forceset/tau_ankle_angle_r	/forceset/tau_subtalar_angle_r	/forceset/tau_lumbar_extension	lambda_cid13_p0	lambda_cid14_p0	lambda_cid14_p1	lambda_cid14_p2	lambda_cid14_p3	lambda_cid14_p4	lambda_cid14_p5	/jointset/ground_pelvis/pelvis_tilt/accel	/jointset/ground_pelvis/pelvis_tx/accel	/jointset/ground_pelvis/pelvis_ty/accel	/jointset/hip_r/hip_flexion_r/accel	/jointset/hip_r/hip_adduction_r/accel	/jointset/hip_r/hip_rotation_r/accel	/jointset/back/lumbar_extension/accel	/jointset/patellofemoral_r/patellar_flexion_r/accel	/jointset/knee_r/knee_flexion_r/accel	/jointset/knee_r/knee_adduction_r/accel	/jointset/knee_r/knee_rotation_r/accel	/jointset/ankle_r/ankle_angle_r/accel	/jointset/subtalar_r/subtalar_angle_r/accel	gamma_cid13_p0	gamma_cid14_p0	gamma_cid14_p1	gamma_cid14_p2	gamma_cid14_p3	gamma_cid14_p4	gamma_cid14_p5
0.5	-0.1982847109671025	0.005485275411364903	0.8449770660237482	0.8663154775696258	-0.2279773814845279	-0.1329002400680695	-0.3350365160386014	0.6923267744557738	0.6923267744559241	0.03674713645924892	0.1745201765263767	0.1929947111559098	0.03954003154900201	-0.5328236842916787	-0.1899530190850333	-0.3891241573195542	1.858500217130924	-0.001498492150313843	0.2639924366160583	-0.5938192821140038	1.666190812380302	1.666190812380173	-0.2802116203654077	-3.833261184391697e-05	0.4227637062385866	0.1082294654798099	-0.1402463087660594	-0.02400570579715097	0.009101791478931318	-0.3171753570705693	0.1081633887229573	-0.008062814687058294	0.1793208341551445	-31.76777595410914	-7.46664612660985	-0.5833107129909851	-4.273830830230361	-1.378070931165614	-668.6471155299	61.41315881062932	0.2653098182306028	0.4911378783231133	-0.3374763845299892	-1.242018479375862	-0.03369304990105983	-0.5062336793600963	1.657000554801507	-1.205306397503109	-1.205306397503119	0.4542987316380067	0.001842132975176941	-0.3610027481298263	-0.08157956969679231	-1.128951103945301e-07	-1.587524245064296e-07	4.769430545243728e-07	-1.077419826873965e-06	5.045911032864761e-08	-2.364833785312843e-07	4.672253079495803e-07
0.51	-0.2035986172248118	0.003610481582097909	0.8410698417596587	0.884835336186084	-0.2279948859352459	-0.1302847003897217	-0.3408915023455871	0.708925914877897	0.7089259148779681	0.03397016258022866	0.174519965646	0.1972033377493822	0.04061691869480408	-0.5298792931491426	-0.1849907718270706	-0.3922334611199446	1.845220843773481	-0.002010185900741372	0.259147624413653	-0.5771114957120167	1.653406261918694	1.653406261918589	-0.275125432025701	-2.343264561361573e-05	0.418894107320506	0.107116743194623	-0.1476058701157091	-0.02245683610024176	0.009763612942271122	-0.319377792278206	0.1049882808077649	-0.007534958281004183	0.1855944266169942	-30.81395997992585	-8.681377257380262	-0.6630214221146717	-4.151161131036545	-0.8319593706916025	-672.6353851271882	61.23014774799753	0.320731309741232	0.5010232102889119	-0.2846177190611965	-1.40851449628537	-0.06118015663129257	-0.4689595626627753	1.687640218559515	-1.349659263096836	-1.349659263093123	0.5444656442193484	-0.001814619209957761	-0.4100742403340156	-0.1308420664628184	-9.062154814007347e-08	-8.283680879799553e-08	6.795743737429963e-07	-5.365422624236832e-07	-2.217533630598452e-08	-1.600980008750498e-07	4.336200392823189e-07
0.52	-0.208880734061601	0.001785761237561741	0.8371341323893117	0.9032148775224961	-0.228017761847273	-0.1277166797477929	-0.3465774162814204	0.7253902838168829	0.7253902838168752	0.03124578793642074	0.1745192780557542	0.2013712411983364	0.04168173391604765	-0.5264658001075615	-0.1799383221388676	-0.3948211785710404	1.830436761121764	-0.00257278441187647	0.2544886293319665	-0.560004807883541	1.639236515752801	1.639236515752721	-0.2696917733227002	-0.0001336745856598806	0.4146190773349518	0.1058150805681087	-0.1549654314653573	-0.02090796640333068	0.01042543440559935	-0.3215802274858416	0.101813172892574	-0.007007101874945215	0.1918680190788445	-29.85333160793238	-9.899536832747399	-0.7402842468232257	-4.032364000836857	-0.3000143132033924	-676.6860389802009	61.1088215918094	0.3591301980396272	0.5091783643711713	-0.2331591146711083	-1.542960338230703	-0.04387400204257238	-0.4690702552163195	1.736780840099247	-1.482345538359888	-1.482345538359908	0.5237928042968257	-0.0231862482801359	-0.4420889616245499	-0.1193676379622983	-5.524496658495768e-08	5.057932710004419e-08	1.066101020820957e-06	3.991221973185234e-07	-1.560741649118831e-07	-2.393838194753038e-08	4.098919992201705e-07
0.53	-0.2141266451323652	1.201059794682835e-05	0.8331751699566405	0.921439504794223	-0.2280457966326449	-0.125197436711341	-0.3520902262875679	0.7417062309030088	0.7417062309030769	0.0285742287828173	0.1745186377413905	0.2054947181734836	0.04273362246291171	-0.522647087459218	-0.1747952211369417	-0.3968795876574393	1.814240670183154	-0.003045526837668566	0.2494002911118902	-0.5425061919477954	1.623725230921478	1.623725230921377	-0.2645550004764874	-1.896618193468918e-05	0.4100179284337296	0.1045290504763853	-0.1618327844027456	-0.01979993171172608	0.01103843638519488	-0.3245755217066688	0.0997721612502571	-0.006527766814854663	0.197771411027985	-28.88698349391633	-10.75916067421566	-0.7765277740408	-3.919324433859078	-0.04549001223935538	-680.826898963944	61.13742340481433	0.4036492208860691	0.5193183842044011	-0.1784142438010294	-1.695125199152995	-0.05042640761238359	-0.5226668527059188	1.764052180030295	-1.619663205483248	-1.619663205486312	0.5186094933404413	0.02527839986737453	-0.477923109783837	-0.1379528412525723	-3.01175536820229e-08	1.406134953456456e-07	1.316441998510811e-06	1.025759694008272e-06	-2.4571272044117e-07	6.673875824952599e-08	4.06874813425175e-07
0.54	-0.2193322875921153	-0.001709820548428618	0.8291983769454699	0.9394947328110682	-0.2280788492512282	-0.1227278673065496	-0.3574265200924142	0.7578602364908287	0.7578602364909726	0.02595603535138677	0.1745184403140979	0.2095704246085359	0.04377170427956351	-0.5184120779047005	-0.1695544234909744	-0.3983872942709079	1.796556910145469	-0.003576351054055053	0.2445539029997089	-0.5247015676233262	1.606848216091567	1.606848216091446	-0.259018628887997	-4.509717146836248e-05	0.4050649693159961	0.1030537345256535	-0.168700137340133	-0.01869189702012012	0.01165143836478247	-0.3275708159274955	0.09773114960794101	-0.00604843175476095	0.2036748029771258	-27.91574105253536	-11.62487952148437	-0.8131882029884957	-3.806960082682934	0.2140666068886579	-685.0655561747875	61.16994863756224	0.442389579274398	0.5287176931794517	-0.1230186200850604	-1.84049415804569	-0.05549036016144999	-0.42068023363731	1.797982517843963	-1.75549153807734	-1.755491538077354	0.6037125527523532	-0.0513541269319086	-0.5124510049268094	-0.1572248097639798	-1.632964652192682e-08	1.826505929970596e-07	1.41610946964361e-06	1.310495018810191e-06	-2.863824632048438e-07	1.070948581490481e-07	4.267717642661787e-07
0.55	-0.2244935927056771	-0.003378840646028771	0.8252092556856128	0.9573660108558087	-0.228117188956582	-0.1203069445634218	-0.3625832699790433	0.7738388551340123	0.7738388551340251	0.02339366760071885	0.1745180376763517	0.2135949777015111	0.04479453061405179	-0.5137820400604974	-0.1642407164009037	-0.399344384105365	1.777467269832914	-0.004093275139849213	0.2396290501586921	-0.5066077912099247	1.588662180438557	1.588662180438516	-0.2534367914687995	-3.542869386453962e-05	0.3997921324189899	0.1014915771236538	-0.1755404611904041	-0.01741827804205064	0.01214851833993339	-0.3302827931484822	0.0953087340678824	-0.005568364659279055	0.2094923742897065	-26.94072314967091	-12.61092047013754	-0.8718605946769845	-3.689645849202744	0.608240489191106	-689.2220891286347	61.13083347523011	0.4833623515976951	0.533967447949122	-0.06814230439862849	-1.97789188776659	-0.04969634645410929	-0.5285729056183784	1.821167976966861	-1.882157633100202	-1.882157633088174	0.538417613114908	0.02740660391393443	-0.5427707915541755	-0.15830067178676	-8.252952519248909e-09	2.022792414987718e-07	1.444556241214825e-06	1.435738390921479e-06	-3.041062935750594e-07	1.263808619232172e-07	4.443204882226857e-07
0.5600000000000001	-0.2296065871478759	-0.004994469626522579	0.8212133458995565	0.9750394539134426	-0.2281606784855264	-0.1179353073679613	-0.3675578635467626	0.7896292138098282	0.7896292138097111	0.02088771787956561	0.1745177875771425	0.217565188273623	0.04580121748124631	-0.5087499436321163	-0.1588762000697054	-0.399744999510725	1.756989912724113	-0.004606315772272121	0.2346967934662948	-0.488270303841378	1.569196222618052	1.569196222618092	-0.2477350229851435	-1.458946396443454e-05	0.3941964651433175	0.09982584106690207	-0.1823807850406752	-0.016144659063981	0.01264559831508383	-0.3329947703694688	0.09288631852782385	-0.005088297563797102	0.2153099456022874	-25.96333096223639	-13.60439651006254	-0.9328248482197784	-3.570833797443456	1.015627803848831	-693.4948431736707	61.07787755481547	0.5228012961100557	0.5388795414049846	-0.01172373426564235	-2.118037517294967	-0.05471366948719934	-0.4221610039134355	1.84672470887298	-2.011475971576221	-2.01147597157626	0.6276987656440598	-0.04911997647265189	-0.5770170806600485	-0.1779405407143941	-7.029714305472568e-09	1.950177510208429e-07	1.387538173312142e-06	1.369591419804018e-06	-2.942950290731262e-07	1.203827503469635e-07	4.590513399177966e-07
0.5700000000000001	-0.2346673175069387	-0.006556244247887785	0.8172162146684662	0.9925013358000834	-0.2282093204643257	-0.1156127789459282	-0.3723479735256394	0.8052186392466651	0.8052186392465164	0.01843951484976847	0.1745176132622106	0.2214778705308451	0.04679068034364362	-0.5033326449597565	-0.1534740862809879	-0.3995874546032814	1.735164615162185	-0.00512121840542242	0.2298075602007087	-0.4697255529409908	1.548485499709668	1.548485499709705	-0.2418926212414865	-2.095307975962554e-05	0.3882915559435899	0.09805081494332378	-0.1889779895094807	-0.014915715866099	0.01302996697691223	-0.3357504068502778	0.09062096905953378	-0.004599047655859446	0.2208904152184378	-24.98520719792654	-14.54054073697967	-0.9794505791858678	-3.454665666044409	1.39867815310228	-697.6476230254509	61.04892762341203	0.5607312567978425	0.5415152369091184	0.04358581683434677	-2.248033480693134	-0.0494360454037555	-0.52245966999214	1.862271129566119	-2.131373938849078	-2.131373938849274	0.5647040531162615	0.02376154115522842	-0.6045313140135733	-0.1793012400703819	-5.798007559219628e-09	1.872287634144945e-07	1.326361401335461e-06	1.300817412514406e-06	-2.834440548075375e-07	1.142004866812881e-07	4.693595518078193e-07
